PathFileType	4	(X/Y/Z)	D:\Documents\Paper\paper_current\paper_step_1_data\data_step_3\marker\70DL\subject_01.tsv
DataRate	CameraRate	NumFrames	NumMarkers	Units	OrigDataRate	OrigDataStartFrame	OrigNumFrames
200	200	10	39	mm	200	4069	200
Frame#	Time	Top.Head			L.Acromium			R.Acromium			Sternum			L.ASIS			R.ASIS			V.Sacral			L.Ankle.Lat			L.Toe.Tip			R.Heel			R.Ankle.Med			R.Ankle.Lat			L.Toe.Med			L.Toe.Lat			L.Heel			L.Ankle.Med			L.Shank1			L.Shank2			R.Toe.Tip			R.Toe.Med			R.Toe.Lat			L.Thigh2			L.Thigh1			L.Thigh3			R.Thigh3			R.Thigh1			R.Thigh2			R.Shank1			R.Shank2			R.Shank3			L.Shank3			L.Shank4			R.Shank4			L.Thigh4			R.Thigh4			R.Heel.Lat			R.Heel.Med			L.Heel.Lat			L.Heel.Med		
		X1	Y1	Z1	X2	Y2	Z2	X3	Y3	Z3	X4	Y4	Z4	X5	Y5	Z5	X6	Y6	Z6	X7	Y7	Z7	X8	Y8	Z8	X9	Y9	Z9	X10	Y10	Z10	X11	Y11	Z11	X12	Y12	Z12	X13	Y13	Z13	X14	Y14	Z14	X15	Y15	Z15	X16	Y16	Z16	X17	Y17	Z17	X18	Y18	Z18	X19	Y19	Z19	X20	Y20	Z20	X21	Y21	Z21	X22	Y22	Z22	X23	Y23	Z23	X24	Y24	Z24	X25	Y25	Z25	X26	Y26	Z26	X27	Y27	Z27	X28	Y28	Z28	X29	Y29	Z29	X30	Y30	Z30	X31	Y31	Z31	X32	Y32	Z32	X33	Y33	Z33	X34	Y34	Z34	X35	Y35	Z35	X36	Y36	Z36	X37	Y37	Z37	X38	Y38	Z38	X39	Y39	Z39
4070	20.345	-928.107	1637.273	357.578	-887.211	1445.283	93.424	-1166.135	1431.574	240.476	-987.057	1334.852	241.012	-905.631	948.128	105.074	-1125.521	933.723	191.29	-1075.283	978.406	-1	-929.463	328.222	89.854	-866.931	217.469	223.246	-1110.781	35.89	18.928	-1077.32	110.704	127.103	-1162.442	91.575	97.647	-939.424	221.296	203.884	-866.943	239.703	132.183	-1011.375	312.756	3.765	-1001.676	341.208	129.327	-806.868	530.719	269.743	-822.513	461.307	224.323	-1143.811	48.502	307.33	-1096.228	44.908	249.686	-1197.875	32.497	209.272	-811.521	758.358	236.011	-824.261	813.286	175.609	-813.818	767.935	133.195	-1179.203	631.479	83.49	-1193.037	625.644	148.535	-1176.844	544.329	151.021	-1187.244	383.513	158.223	-1187.548	296.837	151.448	-1197.251	391.099	95.778	-811.854	565.342	217.438	-831.821	493.328	170.086	-1197.816	308.278	87.448	-799.539	708.211	196.106	-1163.203	544.426	88.594	-1166.368	29.106	60.882	-1067.263	27.853	88.579	-944.004	283.569	16.684	-1031.784	277.543	73.909
4071	20.35	-926.944	1636.832	360.693	-887.87	1445.537	95.873	-1165.728	1431.364	244.772	-986.672	1334.632	243.861	-905.982	948.562	107.123	-1125.446	933.64	193.861	-1075.905	978.541	1.626	-928.788	328.078	99.298	-865.637	220.093	233.935	-1110.747	36.027	18.95	-1077.186	110.714	127.378	-1162.364	91.674	97.807	-938.176	223.774	214.747	-865.766	240.696	142.418	-1010.564	311.622	13.222	-1000.72	342.034	138.563	-804.066	534.16	274.541	-820.753	463.464	231.021	-1143.818	48.397	307.412	-1096.2	44.88	249.746	-1197.823	32.481	209.268	-810.506	761.339	238.637	-823.76	815.61	177.723	-813.287	769.868	135.755	-1179.266	631.696	85.259	-1193.012	625.632	150.328	-1176.779	544.319	152.531	-1187.18	383.458	159.106	-1187.459	296.805	152.08	-1197.16	391.208	96.671	-810.03	567.449	222.354	-830.826	494.038	177.229	-1197.707	308.404	88.123	-798.426	710.852	199.179	-1163.27	544.592	90.122	-1166.326	29.209	60.906	-1067.221	27.861	88.615	-943.123	282.617	26.486	-1030.904	277.922	84.215
4072	20.355	-925.747	1636.367	363.803	-888.486	1445.756	98.288	-1165.293	1431.149	248.948	-986.273	1334.405	246.676	-906.332	948.885	109.152	-1125.42	933.593	196.476	-1076.48	978.661	4.278	-928.059	327.663	108.776	-864.117	222.561	244.577	-1110.707	36.158	18.976	-1077.044	110.722	127.672	-1162.271	91.781	97.963	-936.692	226.016	225.59	-864.431	241.512	152.592	-1009.666	310.186	22.719	-999.669	342.542	147.79	-801.294	537.376	279.23	-818.954	465.414	237.66	-1143.806	48.3	307.527	-1096.169	44.855	249.811	-1197.772	32.472	209.268	-809.496	764.117	241.201	-823.264	817.757	179.828	-812.748	771.664	138.262	-1179.321	631.916	87.015	-1193.015	625.625	152.088	-1176.736	544.32	154.021	-1187.122	383.405	159.995	-1187.375	296.776	152.72	-1197.065	391.321	97.572	-808.255	569.377	227.133	-829.795	494.572	184.163	-1197.589	308.538	88.802	-797.335	713.318	202.162	-1163.299	544.798	91.579	-1166.281	29.316	60.932	-1067.178	27.865	88.653	-942.131	281.392	36.323	-1029.873	277.979	94.511
4073	20.36	-924.517	1635.885	366.909	-889.058	1445.942	100.662	-1164.835	1430.922	253.022	-985.857	1334.179	249.467	-906.647	949.125	111.267	-1125.436	933.574	199.131	-1077.007	978.768	6.955	-927.228	327.02	118.221	-862.361	224.876	255.153	-1110.664	36.284	19.007	-1076.9	110.727	127.983	-1162.16	91.897	98.111	-934.96	228.032	236.407	-862.933	242.156	162.706	-1008.676	308.448	32.26	-998.502	342.76	156.97	-798.755	540.232	283.958	-817.129	467.176	244.196	-1143.779	48.21	307.668	-1096.138	44.829	249.879	-1197.723	32.47	209.273	-808.489	766.688	243.703	-822.765	819.728	181.921	-812.21	773.319	140.714	-1179.371	632.137	88.758	-1193.05	625.624	153.813	-1176.719	544.329	155.497	-1187.074	383.356	160.897	-1187.299	296.749	153.371	-1196.971	391.438	98.485	-806.55	571.112	231.768	-828.67	495.009	190.793	-1197.468	308.682	89.489	-796.268	715.602	205.051	-1163.296	545.045	92.964	-1166.237	29.427	60.959	-1067.133	27.867	88.692	-941.034	279.908	46.186	-1028.682	277.697	104.796
4074	20.365	-923.253	1635.392	370.011	-889.587	1446.1	102.993	-1164.362	1430.674	257.02	-985.419	1333.964	252.242	-906.888	949.359	113.431	-1125.488	933.572	201.819	-1077.487	978.863	9.658	-926.237	326.208	127.55	-860.36	227.036	265.648	-1110.618	36.406	19.043	-1076.756	110.731	128.303	-1162.038	92.024	98.251	-932.975	229.834	247.191	-861.267	242.629	172.759	-1007.596	306.409	41.853	-997.187	342.709	166.088	-796.611	542.637	288.829	-815.291	468.768	250.588	-1143.745	48.115	307.82	-1096.108	44.799	249.949	-1197.677	32.475	209.283	-807.49	769.049	246.14	-822.255	821.524	184.001	-811.678	774.826	143.11	-1179.42	632.359	90.493	-1193.117	625.631	155.503	-1176.733	544.343	156.967	-1187.037	383.311	161.815	-1187.231	296.725	154.037	-1196.884	391.56	99.417	-804.934	572.634	236.259	-827.451	495.363	197.113	-1197.349	308.833	90.191	-795.232	717.698	207.847	-1163.274	545.33	94.29	-1166.194	29.542	60.989	-1067.089	27.871	88.732	-939.831	278.175	56.071	-1027.326	277.072	115.071
4075	20.37	-921.959	1634.889	373.11	-890.075	1446.23	105.278	-1163.877	1430.398	260.966	-984.952	1333.762	255.006	-907.212	949.522	115.74	-1125.565	933.575	204.534	-1077.921	978.947	12.384	-925.031	325.283	136.681	-858.109	229.039	276.048	-1110.572	36.526	19.083	-1076.617	110.734	128.623	-1161.909	92.158	98.385	-930.738	231.437	257.936	-859.429	242.934	182.747	-1006.433	304.071	51.505	-995.687	342.4	175.15	-794.938	544.569	293.878	-813.454	470.203	256.803	-1143.71	48.005	307.973	-1096.079	44.765	250.018	-1197.634	32.485	209.298	-806.5	771.196	248.512	-821.73	823.148	186.065	-811.158	776.18	145.45	-1179.473	632.582	92.225	-1193.215	625.647	157.16	-1176.777	544.36	158.44	-1187.012	383.267	162.758	-1187.173	296.701	154.721	-1196.809	391.686	100.376	-803.425	573.922	240.608	-826.202	495.581	203.229	-1197.239	308.99	90.912	-794.233	719.602	210.551	-1163.243	545.643	95.576	-1166.153	29.661	61.022	-1067.047	27.877	88.772	-938.524	276.195	65.985	-1025.808	276.105	125.339
4076	20.375	-920.639	1634.376	376.205	-890.525	1446.335	107.516	-1163.379	1430.094	264.869	-984.452	1333.577	257.761	-907.49	949.586	117.983	-1125.659	933.574	207.269	-1078.313	979.015	15.133	-923.574	324.292	145.55	-855.603	230.882	286.343	-1110.528	36.643	19.126	-1076.491	110.741	128.928	-1161.78	92.299	98.515	-928.26	232.851	268.632	-857.417	243.072	192.666	-1005.197	301.439	61.226	-993.968	341.838	184.179	-793.731	546.061	299.074	-811.626	471.488	262.825	-1143.679	47.88	308.118	-1096.053	44.728	250.087	-1197.597	32.496	209.318	-805.524	773.129	250.818	-821.185	824.6	188.116	-810.656	777.378	147.735	-1179.531	632.802	93.965	-1193.34	625.674	158.785	-1176.848	544.378	159.925	-1186.996	383.22	163.73	-1187.124	296.675	155.427	-1196.748	391.815	101.367	-802.038	574.969	244.812	-824.99	495.604	209.24	-1197.14	309.15	91.658	-793.276	721.307	213.164	-1163.215	545.967	96.858	-1166.116	29.782	61.056	-1067.008	27.887	88.812	-937.112	273.97	75.93	-1024.137	274.804	135.607
4077	20.38	-919.297	1633.857	379.292	-890.939	1446.418	109.708	-1162.865	1429.767	268.734	-983.913	1333.409	260.51	-907.737	949.685	120.33	-1125.761	933.557	210.023	-1078.665	979.067	17.903	-921.852	323.26	154.122	-852.84	232.564	296.522	-1110.487	36.759	19.171	-1076.386	110.763	129.196	-1161.659	92.443	98.644	-925.555	234.08	279.263	-855.233	243.046	202.508	-1003.902	298.52	71.021	-992.003	341.023	193.206	-792.901	547.19	304.333	-809.811	472.624	268.652	-1143.656	47.742	308.251	-1096.033	44.689	250.154	-1197.565	32.504	209.34	-804.564	774.846	253.058	-820.617	825.88	190.154	-810.178	778.416	149.965	-1179.595	633.02	95.722	-1193.484	625.711	160.381	-1176.942	544.395	161.43	-1186.988	383.165	164.735	-1187.085	296.647	156.157	-1196.703	391.943	102.394	-800.779	575.779	248.862	-823.833	495.434	215.141	-1197.059	309.311	92.434	-792.37	722.81	215.688	-1163.204	546.283	98.177	-1166.084	29.901	61.091	-1066.973	27.902	88.852	-935.598	271.504	85.903	-1022.324	273.18	145.88
4078	20.385	-917.936	1633.339	382.366	-891.319	1446.478	111.86	-1162.327	1429.424	272.56	-983.329	1333.255	263.253	-907.948	949.801	122.661	-1125.863	933.516	212.791	-1078.982	979.099	20.692	-919.882	322.193	162.396	-849.818	234.083	306.569	-1110.451	36.872	19.216	-1076.308	110.815	129.397	-1161.551	92.587	98.773	-922.639	235.121	289.818	-852.881	242.859	212.272	-1002.563	295.324	80.899	-989.787	339.954	202.262	-792.285	548.059	309.535	-808.009	473.606	274.285	-1143.642	47.607	308.366	-1096.02	44.649	250.218	-1197.538	32.507	209.365	-803.625	776.346	255.234	-820.027	826.988	192.185	-809.729	779.293	152.145	-1179.664	633.233	97.506	-1193.642	625.759	161.956	-1177.053	544.409	162.962	-1186.985	383.098	165.777	-1187.053	296.614	156.915	-1196.675	392.069	103.459	-799.64	576.371	252.748	-822.713	495.106	220.866	-1196.996	309.472	93.243	-791.52	724.107	218.126	-1163.218	546.578	99.565	-1166.058	30.016	61.126	-1066.943	27.922	88.891	-933.991	268.809	95.894	-1020.384	271.247	156.169
4079	20.39	-916.562	1632.827	385.421	-891.666	1446.518	113.974	-1161.758	1429.071	276.347	-982.698	1333.116	265.993	-908.121	949.847	125.054	-1125.957	933.446	215.576	-1079.27	979.109	23.5	-917.706	321.074	170.401	-846.536	235.441	316.461	-1110.419	36.984	19.261	-1076.266	110.92	129.5	-1161.459	92.73	98.905	-919.517	235.966	300.285	-850.366	242.51	221.954	-1001.198	291.867	90.862	-987.331	338.629	211.371	-791.711	548.758	314.57	-806.221	474.429	279.724	-1143.643	47.489	308.455	-1096.015	44.607	250.279	-1197.517	32.503	209.393	-802.711	777.631	257.349	-819.419	827.923	194.21	-809.311	780.003	154.275	-1179.734	633.438	99.324	-1193.805	625.813	163.531	-1177.177	544.42	164.52	-1186.985	383.019	166.856	-1187.028	296.574	157.702	-1196.66	392.192	104.562	-798.612	576.765	256.463	-821.625	494.648	226.367	-1196.953	309.633	94.084	-790.732	725.2	220.478	-1163.259	546.849	101.035	-1166.037	30.123	61.161	-1066.92	27.948	88.931	-932.311	265.904	105.883	-1018.331	269.019	166.486
